<svg version="1.1" id="Layer_1" xmlns="http://www.w3.org/2000/svg" xmlns:xlink="http://www.w3.org/1999/xlink" x="0px" y="0px"
	 width="100%" viewBox="0 0 976 976" enable-background="new 0 0 976 976" xml:space="preserve">
<path fill="#000000" opacity="1.000000" stroke="none" 
	d="
M595.000122,690.674561 
	C614.330017,690.671814 633.160034,690.692078 651.989868,690.659668 
	C667.410828,690.633118 677.637268,680.399353 677.640259,664.872314 
	C677.662476,548.893372 677.663696,432.914459 677.642151,316.935516 
	C677.639282,301.417267 667.529724,291.396637 651.865356,291.391388 
	C574.046143,291.365356 496.226959,291.367645 418.407745,291.399567 
	C402.937836,291.405945 393.171082,301.184998 393.085602,316.728821 
	C392.997589,332.725403 393.184784,348.724060 393.019318,364.719421 
	C392.875549,378.615723 380.737122,386.403320 369.008667,380.283142 
	C363.423981,377.368896 360.890106,372.338959 360.832886,366.351562 
	C360.657806,348.023560 360.327698,329.678284 360.904572,311.366364 
	C361.730408,285.152985 383.878357,262.198792 410.000824,259.715393 
	C414.635254,259.274811 419.308929,259.060760 423.964630,259.058411 
	C499.284271,259.019989 574.603943,259.049835 649.923584,259.019318 
	C664.736511,259.013306 678.286865,262.666534 689.776672,272.390808 
	C704.616272,284.950134 710.007996,301.416870 709.992432,320.384399 
	C709.898743,434.363617 709.946411,548.342896 709.936096,662.322205 
	C709.935608,667.824951 709.462158,673.283508 708.369385,678.694946 
	C703.714478,701.745483 683.607849,719.989502 660.172119,722.241089 
	C655.703979,722.670410 651.197937,722.889221 646.709167,722.891418 
	C571.722778,722.928650 496.736359,722.864990 421.750061,722.950867 
	C403.383057,722.971924 387.288116,717.876587 374.771362,703.775818 
	C365.779968,693.646667 361.040802,681.744812 360.831879,668.278870 
	C360.557922,650.619568 360.714447,632.952881 360.764526,615.289612 
	C360.793274,605.139160 367.510864,597.845337 376.709839,597.776306 
	C385.902893,597.707336 392.881805,604.886719 392.977173,615.051514 
	C393.130432,631.380249 392.947662,647.711853 392.989777,664.041992 
	C393.034363,681.333191 402.376923,690.646851 419.538177,690.649109 
	C477.858795,690.656616 536.179443,690.666077 595.000122,690.674561 
z"/>
<path fill="#000000" opacity="1.000000" stroke="none" 
	d="
M342.000000,507.238098 
	C333.858765,507.239075 326.217529,507.239075 318.546753,507.239075 
	C318.198273,509.465729 319.768494,510.135590 320.783447,511.067993 
	C330.593323,520.080322 340.398926,529.097961 350.279266,538.032776 
	C358.149536,545.149902 359.350677,554.813477 353.109100,561.924988 
	C346.718597,569.206116 336.702209,569.286255 328.784088,562.051880 
	C315.136353,549.582642 301.456482,537.147583 287.906921,524.572266 
	C266.380310,504.593506 267.492676,472.987518 289.926117,453.994354 
	C303.139435,442.807373 315.814606,430.986420 328.793549,419.520447 
	C336.301178,412.887939 346.573883,413.009705 352.503510,419.644501 
	C358.627808,426.497009 357.945831,436.422913 350.532074,443.243561 
	C340.607452,452.374146 330.451050,461.252380 320.448517,470.299072 
	C319.276581,471.359009 317.627136,472.132050 317.328827,474.101715 
	C319.129761,475.398163 321.183929,474.779480 323.084625,474.780762 
	C382.552734,474.820740 442.020935,474.791443 501.489044,474.836334 
	C513.742859,474.845581 520.709290,482.244385 519.380188,493.521423 
	C518.448975,501.422272 511.762634,507.120850 502.913391,507.182739 
	C487.089294,507.293396 471.263885,507.219879 455.439026,507.222137 
	C417.792694,507.227509 380.146332,507.232147 342.000000,507.238098 
z"/>
</svg>